<svg xmlns="http://www.w3.org/2000/svg" xmlns:xlink="http://www.w3.org/1999/xlink" width="940" zoomAndPan="magnify" viewBox="0 0 705 591.000005" height="788" preserveAspectRatio="xMidYMid meet" version="1.0"><defs><clipPath id="id1"><path d="M 20.699219 308 L 81 308 L 81 319 L 20.699219 319 Z M 20.699219 308 " clip-rule="nonzero"/></clipPath></defs><path fill="#7d1156" d="M 683.171875 465.378906 C 680.46875 458.691406 669.621094 436.050781 643.328125 425.519531 C 633.441406 421.5625 624.035156 420.359375 615.8125 420.5 C 618.628906 419.175781 621.546875 417.957031 624.605469 416.910156 C 626.828125 416.148438 628.277344 414.007812 628.160156 411.660156 C 626.09375 371.773438 619.824219 332.046875 609.523438 293.585938 C 602.277344 266.515625 592.84375 239.820312 581.640625 214.011719 L 598.289062 214.011719 C 601.199219 214.011719 603.550781 211.652344 603.550781 208.75 L 603.550781 159.492188 C 603.550781 156.585938 601.199219 154.230469 598.289062 154.230469 L 558.320312 154.230469 L 554.277344 121.898438 C 553.949219 119.265625 551.710938 117.285156 549.058594 117.285156 L 535.460938 117.285156 C 533.476562 103.308594 523.78125 92.65625 512.128906 92.65625 C 499.050781 92.65625 488.402344 106.066406 488.402344 122.550781 C 488.402344 139.03125 499.046875 152.441406 512.128906 152.441406 C 523.78125 152.441406 533.484375 141.789062 535.460938 127.8125 L 544.40625 127.8125 L 548.296875 158.960938 L 522.515625 184.757812 C 518.410156 180.621094 513.015625 177.964844 507.136719 177.511719 L 448.328125 172.984375 C 445.464844 164.855469 441.453125 157.21875 436.382812 150.242188 C 434.09375 147.089844 431.546875 144.136719 428.859375 141.304688 C 451.042969 132.273438 466.742188 110.503906 466.742188 85.101562 C 466.742188 74.042969 463.726562 63.28125 458.117188 53.921875 L 518.285156 53.921875 C 527.976562 53.921875 535.855469 46.039062 535.855469 36.34375 C 535.855469 26.652344 527.976562 18.765625 518.285156 18.765625 L 474.316406 18.765625 L 474.316406 5.5625 C 474.316406 2.660156 471.964844 0.300781 469.054688 0.300781 L 382.894531 0.300781 C 380.789062 0.300781 378.886719 1.554688 378.0625 3.492188 L 359.875 45.949219 C 350.582031 56.867188 345.445312 70.71875 345.445312 85.101562 C 345.445312 106.667969 356.78125 125.589844 373.773438 136.359375 C 364.433594 145.636719 356.285156 155.71875 349.382812 166.542969 L 118.269531 166.542969 C 115.359375 166.542969 113.007812 168.902344 113.007812 171.804688 C 113.007812 174.710938 115.359375 177.070312 118.269531 177.070312 L 343.128906 177.070312 C 340.082031 182.695312 337.347656 188.492188 334.9375 194.460938 C 334.550781 195.425781 334.207031 196.371094 333.832031 197.328125 L 216.734375 197.328125 C 213.824219 197.328125 211.472656 199.6875 211.472656 202.589844 C 211.472656 205.496094 213.824219 207.855469 216.734375 207.855469 L 330.019531 207.855469 C 318.214844 243.246094 317.765625 275.21875 328.773438 303.042969 C 328.988281 303.589844 329.265625 304.105469 329.488281 304.648438 C 310.996094 299.164062 291.921875 296.191406 272.59375 295.851562 L 283.453125 234.289062 C 283.726562 232.757812 283.304688 231.183594 282.300781 229.992188 C 281.304688 228.796875 279.828125 228.113281 278.269531 228.113281 L 118.269531 228.113281 C 115.71875 228.113281 113.535156 229.945312 113.09375 232.460938 L 110.601562 246.585938 L 50.582031 246.585938 C 47.671875 246.585938 45.320312 248.945312 45.320312 251.847656 C 45.320312 254.753906 47.671875 257.109375 50.582031 257.109375 L 108.75 257.109375 L 105.175781 277.371094 L 69.035156 277.371094 C 66.125 277.371094 63.773438 279.730469 63.773438 282.632812 C 63.773438 285.539062 66.125 287.898438 69.035156 287.898438 L 103.3125 287.898438 L 95.398438 332.785156 L 81.34375 332.785156 C 78.4375 332.785156 76.085938 335.136719 76.085938 338.046875 L 76.085938 362.683594 C 76.085938 365.59375 78.4375 367.945312 81.34375 367.945312 L 187.394531 367.945312 C 176.738281 374.011719 166.820312 381.242188 157.777344 389.597656 C 145.351562 401.078125 136.003906 413.375 128.9375 425.148438 L 93.648438 425.148438 C 90.742188 425.148438 88.390625 427.5 88.390625 430.410156 C 88.390625 433.320312 90.742188 435.671875 93.648438 435.671875 L 123.117188 435.671875 C 118.695312 444.40625 115.519531 452.585938 113.261719 459.570312 C 112.789062 461.023438 112.972656 462.605469 113.765625 463.917969 C 114.550781 465.222656 115.871094 466.121094 117.382812 466.378906 L 129.679688 468.496094 C 119.039062 481.730469 113.007812 498.742188 113.007812 516.609375 C 113.007812 556.855469 142.972656 589.601562 179.808594 589.601562 C 205.113281 589.601562 227.175781 574.144531 238.507812 551.421875 L 304.105469 544.730469 C 304.105469 544.859375 304.078125 544.972656 304.078125 545.101562 C 304.078125 556.535156 311.261719 565.488281 320.425781 565.496094 C 320.429688 565.496094 320.429688 565.496094 320.433594 565.496094 C 320.433594 565.496094 320.433594 565.496094 320.441406 565.496094 C 320.597656 565.496094 320.761719 565.492188 320.921875 565.476562 C 344.421875 563.292969 367.828125 558.914062 390.488281 552.453125 C 414.296875 545.667969 437.523438 536.484375 459.589844 525.222656 L 511.242188 534.105469 C 511.535156 534.160156 511.832031 534.1875 512.128906 534.1875 C 512.789062 534.1875 513.441406 534.066406 514.054688 533.824219 C 522.851562 530.359375 530.769531 526.160156 537.855469 521.328125 C 540.097656 559.378906 569.0625 589.605469 604.441406 589.605469 C 641.277344 589.605469 671.242188 556.863281 671.242188 516.613281 C 671.242188 497.667969 664.507812 479.828125 652.839844 466.410156 C 660.835938 467.5 668.769531 469.429688 676.453125 472.289062 C 678.402344 473.015625 680.605469 472.527344 682.058594 471.027344 C 683.515625 469.527344 683.945312 467.316406 683.171875 465.378906 Z M 512.128906 141.914062 C 504.976562 141.914062 498.925781 133.042969 498.925781 122.550781 C 498.925781 112.054688 504.96875 103.183594 512.128906 103.183594 C 519.289062 103.183594 525.335938 112.054688 525.335938 122.550781 C 525.335938 133.042969 519.285156 141.914062 512.128906 141.914062 Z M 549.988281 172.457031 C 550.316406 175.121094 552.585938 177.070312 555.199219 177.070312 C 555.414062 177.070312 555.636719 177.058594 555.855469 177.027344 C 558.738281 176.667969 560.785156 174.039062 560.421875 171.152344 L 559.625 164.753906 L 593.019531 164.753906 L 593.019531 203.484375 L 573.664062 203.484375 C 573.644531 203.484375 573.628906 203.492188 573.605469 203.492188 C 573.523438 203.492188 573.4375 203.519531 573.355469 203.523438 C 572.777344 203.558594 572.21875 203.691406 571.6875 203.90625 C 571.625 203.933594 571.5625 203.921875 571.503906 203.949219 C 571.472656 203.964844 571.457031 203.992188 571.421875 204 C 570.875 204.261719 570.386719 204.621094 569.957031 205.054688 C 569.863281 205.148438 569.777344 205.242188 569.6875 205.347656 C 569.585938 205.464844 569.472656 205.558594 569.382812 205.6875 L 544.847656 240.050781 L 538.324219 218.285156 C 544.121094 215.410156 548.148438 209.484375 548.148438 202.585938 C 548.148438 194.851562 543.09375 188.335938 536.140625 185.992188 L 549.945312 172.179688 Z M 562.257812 313.65625 C 566.335938 405.386719 559.328125 428.132812 550.464844 446.601562 C 543.46875 461.175781 533.976562 474.664062 522.242188 486.71875 L 510.824219 486.71875 C 514.664062 481.734375 516.6875 475.574219 516.40625 469.15625 L 514.101562 416.136719 C 517.402344 411.636719 520.414062 406.933594 522.957031 402.050781 C 531.328125 385.964844 535.859375 370.023438 535.859375 331.890625 L 535.859375 275.582031 L 542.90625 275.582031 C 545.027344 275.582031 546.945312 274.304688 547.761719 272.347656 L 558.054688 247.628906 C 559.855469 269.09375 561.265625 291.21875 562.257812 313.65625 Z M 424.527344 222.308594 L 429.464844 225.597656 C 430.257812 226.050781 431.277344 226.324219 432.195312 226.324219 L 504.074219 226.324219 C 510.242188 226.324219 516.175781 224.042969 520.851562 220.167969 L 527.90625 220.167969 L 537.855469 253.359375 C 538.429688 255.285156 540.054688 256.710938 542.03125 257.039062 C 542.257812 257.074219 542.480469 257.085938 542.707031 257.09375 L 539.386719 265.058594 L 530.589844 265.058594 C 527.679688 265.058594 525.328125 267.414062 525.328125 270.320312 L 525.328125 331.890625 C 525.328125 367.855469 521.214844 382.589844 513.613281 397.1875 C 513.515625 397.378906 513.394531 397.554688 513.292969 397.746094 L 511.234375 350.472656 C 511.234375 348.898438 510.460938 347.292969 509.253906 346.269531 L 509.257812 346.269531 C 495.5625 334.789062 480.875 324.296875 465.609375 315.070312 C 450.78125 306.105469 435.183594 298.199219 419.199219 291.546875 Z M 518.285156 195.539062 L 530.59375 195.539062 C 534.476562 195.539062 537.640625 198.703125 537.640625 202.589844 C 537.640625 206.480469 534.476562 209.644531 530.59375 209.644531 L 518.285156 209.644531 C 514.398438 209.644531 511.234375 206.480469 511.234375 202.589844 C 511.234375 198.703125 514.398438 195.539062 518.285156 195.539062 Z M 419.550781 379.402344 C 431.710938 382.921875 444.546875 385.269531 457.902344 386.148438 L 461.773438 455.855469 C 439.238281 463.054688 416.0625 458.121094 405.636719 443.460938 C 399.804688 435.257812 397.929688 423.574219 400.367188 410.542969 C 403.386719 394.492188 413.644531 384.171875 419.550781 379.402344 Z M 390.027344 408.613281 C 387.0625 424.480469 389.558594 439.019531 397.074219 449.570312 C 406.398438 462.679688 422.765625 469.757812 441.117188 469.753906 C 448.011719 469.753906 455.1875 468.738281 462.378906 466.683594 L 462.625 471.140625 C 462.953125 476.988281 465.128906 482.355469 468.480469 486.71875 L 348.410156 486.71875 C 358.570312 475.425781 369.074219 458.589844 369.695312 436.714844 C 370.453125 409.785156 355.898438 387.777344 343.203125 377.121094 C 342.25 376.320312 341.1875 375.648438 340.179688 374.917969 L 405.511719 378.238281 C 399.277344 385.058594 392.558594 395.144531 390.027344 408.613281 Z M 386.363281 10.828125 L 463.792969 10.828125 L 463.792969 24.035156 C 463.792969 26.941406 466.144531 29.296875 469.054688 29.296875 L 518.285156 29.296875 C 522.171875 29.296875 525.335938 32.460938 525.335938 36.347656 C 525.335938 40.238281 522.171875 43.402344 518.285156 43.402344 L 372.410156 43.402344 Z M 355.964844 85.105469 C 355.964844 73.554688 359.785156 62.835938 366.945312 53.925781 L 445.292969 53.925781 C 452.328125 62.773438 456.21875 73.738281 456.21875 85.105469 C 456.21875 112.761719 433.734375 135.257812 406.09375 135.257812 C 378.457031 135.257812 355.964844 112.761719 355.964844 85.105469 Z M 364.433594 207.855469 C 367.34375 207.855469 369.695312 205.496094 369.695312 202.589844 C 369.695312 199.6875 367.34375 197.328125 364.433594 197.328125 L 345.164062 197.328125 C 348.058594 190.3125 351.453125 183.566406 355.285156 177.070312 L 370.59375 177.070312 C 373.503906 177.070312 375.855469 174.710938 375.855469 171.804688 C 375.855469 168.902344 373.503906 166.542969 370.59375 166.542969 L 361.988281 166.542969 C 368.261719 157.570312 375.53125 149.203125 383.667969 141.425781 C 390.617188 144.203125 398.171875 145.777344 406.101562 145.777344 C 409.914062 145.777344 413.640625 145.382812 417.257812 144.703125 C 421.167969 148.277344 424.78125 152.160156 427.886719 156.421875 C 432.957031 163.40625 436.824219 171.132812 439.394531 179.445312 C 440.054688 181.476562 442.046875 183.050781 444.171875 183.214844 L 506.339844 188 C 506.9375 188.046875 507.511719 188.203125 508.09375 188.324219 C 503.644531 191.519531 500.71875 196.703125 500.71875 202.585938 C 500.71875 207.738281 502.988281 212.332031 506.527344 215.554688 C 505.71875 215.679688 504.90625 215.796875 504.074219 215.796875 L 433.71875 215.796875 L 398.121094 192.050781 C 395.703125 190.429688 392.425781 191.09375 390.824219 193.507812 C 389.207031 195.925781 389.859375 199.191406 392.28125 200.808594 L 414.484375 215.609375 L 408.457031 294.121094 C 408.320312 295.167969 408.515625 296.335938 408.988281 297.285156 C 409.410156 298.132812 410.128906 298.933594 410.925781 299.441406 C 411.203125 299.621094 411.492188 299.773438 411.804688 299.894531 C 428.480469 306.625 444.757812 314.761719 460.171875 324.082031 C 474.351562 332.652344 488.019531 342.359375 500.820312 352.9375 L 503.527344 415.289062 C 503.527344 415.304688 503.527344 415.324219 503.527344 415.339844 L 505.886719 469.609375 C 506.101562 474.5625 504.097656 479.292969 500.394531 482.585938 C 496.632812 485.929688 491.753906 487.308594 486.722656 486.488281 C 479.289062 485.28125 473.570312 478.582031 473.117188 470.558594 L 468.15625 381.085938 C 468.03125 378.363281 465.640625 375.996094 462.925781 375.886719 C 404.84375 373.460938 356.023438 343.347656 338.542969 299.175781 C 328.140625 272.871094 329.042969 242.179688 341.136719 207.859375 L 364.433594 207.859375 Z M 388.304688 366.816406 L 259.972656 360.292969 C 222.875 359.167969 198.996094 344.636719 197.339844 331.25 C 197.1875 329.949219 197.222656 328.644531 197.453125 327.261719 C 198.660156 320.253906 205.667969 315.976562 208.625 314.460938 C 222.953125 307.113281 243.527344 305.914062 272.035156 306.363281 C 293.867188 306.699219 315.375 310.5625 336.007812 317.789062 C 347.78125 338.105469 365.941406 354.910156 388.304688 366.816406 Z M 113.992188 287.898438 L 173.65625 287.898438 C 176.5625 287.898438 178.914062 285.539062 178.914062 282.632812 C 178.914062 279.730469 176.5625 277.371094 173.65625 277.371094 L 115.851562 277.371094 L 119.421875 257.109375 L 155.195312 257.109375 C 158.105469 257.109375 160.457031 254.753906 160.457031 251.847656 C 160.457031 248.945312 158.105469 246.585938 155.195312 246.585938 L 121.277344 246.585938 L 122.679688 238.640625 L 272.003906 238.640625 L 261.929688 295.765625 C 240.546875 295.753906 219.371094 297.136719 203.832031 305.105469 C 194.601562 309.824219 188.5 317.261719 187.085938 325.488281 C 186.675781 327.859375 186.613281 330.234375 186.894531 332.542969 C 186.90625 332.628906 186.9375 332.707031 186.949219 332.789062 L 106.082031 332.789062 Z M 86.605469 343.308594 L 190.929688 343.308594 C 194.3125 348.621094 199.652344 353.382812 206.488281 357.417969 L 86.605469 357.417969 Z M 135.019531 435.671875 L 216.734375 435.671875 C 219.644531 435.671875 221.996094 433.320312 221.996094 430.410156 C 221.996094 427.5 219.644531 425.148438 216.734375 425.148438 L 141.433594 425.148438 C 147.566406 415.824219 155.207031 406.308594 164.921875 397.328125 C 178.761719 384.535156 194.773438 374.53125 212.332031 367.644531 L 221.769531 364.324219 C 229.839844 367.082031 238.972656 369.050781 248.851562 370.066406 C 230.128906 375.832031 210.097656 384.726562 189.472656 396.726562 C 186.960938 398.183594 186.105469 401.410156 187.574219 403.917969 C 189.03125 406.433594 192.25 407.277344 194.765625 405.820312 C 254.417969 371.101562 310.027344 362.996094 336.4375 385.171875 C 348.195312 395.050781 359.785156 414.722656 359.175781 436.410156 C 358.34375 465.800781 336.453125 485.050781 327.351562 491.800781 L 125.265625 457.046875 C 127.65625 450.570312 130.832031 443.292969 135.019531 435.671875 Z M 211.472656 516.609375 C 211.472656 536.113281 197.269531 551.984375 179.808594 551.984375 C 162.351562 551.984375 148.144531 536.113281 148.144531 516.609375 C 148.144531 497.105469 162.351562 481.234375 179.808594 481.234375 C 197.269531 481.234375 211.472656 497.105469 211.472656 516.609375 Z M 179.808594 579.074219 C 148.777344 579.074219 123.53125 551.050781 123.53125 516.609375 C 123.53125 499.011719 130.226562 482.425781 141.878906 470.59375 L 163.460938 474.304688 C 148.296875 481.265625 137.628906 497.605469 137.628906 516.609375 C 137.628906 541.921875 156.550781 562.507812 179.816406 562.507812 C 203.078125 562.507812 222 541.921875 222 516.609375 C 222 502.710938 216.273438 490.261719 207.277344 481.835938 L 228.5 485.480469 C 233.410156 494.933594 236.101562 505.605469 236.101562 516.605469 C 236.089844 551.050781 210.847656 579.074219 179.808594 579.074219 Z M 320.441406 535.234375 C 323.191406 535.234375 326.273438 539.453125 326.273438 545.101562 C 326.273438 550.390625 323.570312 554.382812 320.964844 554.875 C 320.75 554.894531 320.535156 554.925781 320.320312 554.945312 C 317.597656 554.824219 314.601562 550.664062 314.601562 545.09375 C 314.601562 539.453125 317.683594 535.234375 320.441406 535.234375 Z M 387.605469 542.332031 C 370.574219 547.191406 353.105469 550.804688 335.496094 553.1875 C 336.332031 550.722656 336.796875 547.996094 336.796875 545.101562 C 336.796875 540.871094 335.800781 536.992188 334.097656 533.765625 C 354.53125 531.445312 375.125 529.445312 395.566406 528.019531 C 408.199219 527.132812 420.929688 526.417969 433.636719 525.875 C 418.664062 532.359375 403.257812 537.871094 387.605469 542.332031 Z M 394.835938 517.515625 C 369.871094 519.261719 344.625 521.691406 319.792969 524.75 C 319.730469 524.761719 319.675781 524.796875 319.613281 524.808594 C 314.152344 525.132812 309.476562 528.597656 306.71875 533.882812 L 242.890625 540.390625 C 245.257812 532.921875 246.605469 524.945312 246.605469 516.609375 C 246.605469 506.585938 244.71875 496.75 241.125 487.660156 L 409.6875 516.644531 C 404.742188 516.941406 399.765625 517.171875 394.835938 517.515625 Z M 511.558594 523.480469 L 358.964844 497.242188 L 524.441406 497.242188 C 525.839844 497.242188 527.175781 496.691406 528.160156 495.703125 C 541.441406 482.414062 552.144531 467.425781 559.949219 451.15625 C 571.207031 427.722656 576.578125 398.792969 572.777344 313.1875 C 571.472656 283.824219 569.449219 255.007812 566.777344 227.457031 L 572.511719 219.425781 C 583.277344 244.375 592.363281 270.167969 599.359375 296.3125 C 609.132812 332.816406 615.214844 370.480469 617.4375 408.328125 C 606.230469 412.675781 596.5 418.820312 588.46875 426.636719 C 588.464844 426.640625 588.457031 426.648438 588.453125 426.652344 C 588.449219 426.65625 588.441406 426.664062 588.4375 426.671875 C 575.800781 438.984375 571.070312 451.863281 566.496094 464.320312 C 562.84375 474.285156 559.066406 484.578125 551.050781 494.917969 C 541.660156 507.03125 528.378906 516.640625 511.558594 523.480469 Z M 604.441406 579.074219 C 573.40625 579.074219 548.160156 551.050781 548.160156 516.609375 C 548.160156 515.445312 548.238281 514.304688 548.296875 513.152344 C 552.371094 509.496094 556.09375 505.585938 559.367188 501.359375 C 560.238281 500.234375 561.027344 499.117188 561.8125 497.996094 C 564.023438 495.808594 566.582031 493.511719 569.335938 491.207031 C 564.875 498.484375 562.257812 507.214844 562.257812 516.605469 C 562.257812 541.917969 581.183594 562.503906 604.445312 562.503906 C 627.707031 562.503906 646.636719 541.917969 646.636719 516.605469 C 646.636719 491.691406 628.285156 471.394531 605.523438 470.769531 C 611.171875 468.878906 617.175781 467.328125 623.65625 466.398438 C 627.914062 465.796875 632.214844 465.464844 636.535156 465.390625 C 651.679688 477.097656 660.730469 496.074219 660.730469 516.605469 C 660.71875 551.050781 635.472656 579.074219 604.441406 579.074219 Z M 604.441406 481.234375 C 621.902344 481.234375 636.109375 497.105469 636.109375 516.609375 C 636.109375 536.113281 621.90625 551.984375 604.441406 551.984375 C 586.984375 551.984375 572.777344 536.113281 572.777344 516.609375 C 572.777344 497.105469 586.984375 481.234375 604.441406 481.234375 Z M 639.617188 454.996094 C 638.855469 454.808594 638.082031 454.828125 637.324219 454.980469 C 632.242188 455.023438 627.167969 455.273438 622.160156 455.984375 C 602.558594 458.785156 586.480469 466.238281 573.863281 474.644531 C 574.734375 472.398438 575.5625 470.164062 576.375 467.949219 C 580.636719 456.328125 584.71875 445.339844 595.117188 434.902344 C 602.625 432.097656 619.984375 427.511719 639.414062 435.296875 C 653.496094 440.933594 662.386719 450.65625 667.625 458.523438 C 658.410156 456.191406 649 455.097656 639.617188 454.996094 Z M 639.617188 454.996094 " fill-opacity="1" fill-rule="nonzero"/><path fill="#7d1156" d="M 259.816406 41.613281 L 333.660156 41.613281 C 336.570312 41.613281 338.921875 39.253906 338.921875 36.347656 C 338.921875 33.445312 336.570312 31.085938 333.660156 31.085938 L 259.816406 31.085938 C 256.90625 31.085938 254.554688 33.445312 254.554688 36.347656 C 254.554688 39.253906 256.90625 41.613281 259.816406 41.613281 Z M 259.816406 41.613281 " fill-opacity="1" fill-rule="nonzero"/><path fill="#7d1156" d="M 136.734375 72.398438 L 327.503906 72.398438 C 330.414062 72.398438 332.765625 70.039062 332.765625 67.136719 C 332.765625 64.230469 330.414062 61.871094 327.503906 61.871094 L 136.734375 61.871094 C 133.824219 61.871094 131.472656 64.230469 131.472656 67.136719 C 131.472656 70.039062 133.824219 72.398438 136.734375 72.398438 Z M 136.734375 72.398438 " fill-opacity="1" fill-rule="nonzero"/><path fill="#7d1156" d="M 192.121094 129.601562 C 189.210938 129.601562 186.859375 131.957031 186.859375 134.863281 C 186.859375 137.769531 189.210938 140.125 192.121094 140.125 L 315.199219 140.125 C 318.109375 140.125 320.460938 137.769531 320.460938 134.863281 C 320.460938 131.957031 318.109375 129.601562 315.199219 129.601562 Z M 192.121094 129.601562 " fill-opacity="1" fill-rule="nonzero"/><path fill="#7d1156" d="M 93.65625 499.03125 L 62.878906 499.03125 C 59.972656 499.03125 57.621094 501.386719 57.621094 504.296875 C 57.621094 507.207031 59.972656 509.558594 62.878906 509.558594 L 93.65625 509.558594 C 96.5625 509.558594 98.914062 507.207031 98.914062 504.296875 C 98.914062 501.386719 96.5625 499.03125 93.65625 499.03125 Z M 93.65625 499.03125 " fill-opacity="1" fill-rule="nonzero"/><path fill="#7d1156" d="M 57.625 393.460938 C 57.625 396.371094 59.976562 398.722656 62.886719 398.722656 L 112.113281 398.722656 C 115.023438 398.722656 117.375 396.371094 117.375 393.460938 C 117.375 390.550781 115.023438 388.199219 112.113281 388.199219 L 62.886719 388.199219 C 59.976562 388.199219 57.625 390.558594 57.625 393.460938 Z M 57.625 393.460938 " fill-opacity="1" fill-rule="nonzero"/><g clip-path="url(#id1)"><path fill="#7d1156" d="M 80.449219 313.417969 C 80.449219 310.507812 78.097656 308.15625 75.191406 308.15625 L 25.960938 308.15625 C 23.050781 308.15625 20.699219 310.507812 20.699219 313.417969 C 20.699219 316.328125 23.050781 318.683594 25.960938 318.683594 L 75.191406 318.683594 C 78.097656 318.683594 80.449219 316.328125 80.449219 313.417969 Z M 80.449219 313.417969 " fill-opacity="1" fill-rule="nonzero"/></g></svg>