<svg xmlns="http://www.w3.org/2000/svg" xmlns:xlink="http://www.w3.org/1999/xlink" width="940" zoomAndPan="magnify" viewBox="0 0 705 368.250002" height="491" preserveAspectRatio="xMidYMid meet" version="1.0"><defs><clipPath id="id1"><path d="M 189 0 L 704.191406 0 L 704.191406 367.5 L 189 367.5 Z M 189 0 " clip-rule="nonzero"/></clipPath></defs><g clip-path="url(#id1)"><path fill="#7d1156" d="M 256.308594 90.460938 C 251.628906 101.609375 238.773438 106.832031 227.652344 102.15625 C 216.496094 97.445312 211.269531 84.628906 215.953125 73.476562 C 220.664062 62.355469 233.484375 57.132812 244.640625 61.8125 C 255.761719 66.492188 261.019531 79.339844 256.308594 90.460938 Z M 195.5 106.738281 L 267.140625 231.035156 L 584.890625 364.847656 C 603.128906 372.539062 624.15625 363.984375 631.847656 345.71875 L 701.371094 180.757812 C 709.035156 162.523438 700.476562 141.503906 682.238281 133.8125 L 364.488281 0 L 225.472656 35.601562 C 194.410156 43.578125 179.507812 78.957031 195.5 106.738281 " fill-opacity="1" fill-rule="nonzero"/></g><path fill="#ffffff" d="M 9.011719 181.109375 C 8.082031 181.109375 7.121094 180.949219 6.191406 180.535156 C 2.441406 178.964844 0.710938 174.667969 2.28125 170.953125 C 20.96875 126.605469 55.777344 92.15625 100.332031 74.054688 C 144.855469 55.917969 193.835938 56.203125 238.195312 74.917969 C 241.945312 76.488281 243.675781 80.78125 242.105469 84.5 C 240.535156 88.214844 236.242188 89.976562 232.523438 88.410156 C 191.75 71.234375 146.777344 70.945312 105.847656 87.605469 C 64.945312 104.269531 32.957031 135.898438 15.777344 176.625 C 14.589844 179.445312 11.898438 181.109375 9.011719 181.109375 " fill-opacity="1" fill-rule="nonzero"/></svg>